<svg xmlns="http://www.w3.org/2000/svg" version="1.1" xmlnsXlink="http://www.w3.org/1999/xlink" xmlnsSvgjs="http://svgjs.dev/svgjs" width="1500" height="443" viewBox="0 0 1500 443"><g transform="matrix(1,0,0,1,-0.9090909090909918,0.2470575039649816)"><svg viewBox="0 0 396 117" data-background-color="#000000" preserveAspectRatio="xMidYMid meet" height="443" width="1500" xmlns="http://www.w3.org/2000/svg" xmlnsXlink="http://www.w3.org/1999/xlink"><g id="tight-bounds" transform="matrix(1,0,0,1,0.2400000000000091,0.11868689856194692)"><svg viewBox="0 0 395.52 116.77088220196667" height="116.77088220196667" width="395.52"><g><svg viewBox="0 0 663.9409818151385 196.01783519567564" height="116.77088220196667" width="395.52"><g transform="matrix(1,0,0,1,268.4209818151384,47.19980990553013)"><svg viewBox="0 0 395.52 101.61821538461538" height="101.61821538461538" width="395.52"><g id="textblocktransform"><svg viewBox="0 0 395.52 101.61821538461538" height="101.61821538461538" width="395.52" id="textblock"><g><svg viewBox="0 0 395.52 101.61821538461538" height="101.61821538461538" width="395.52"><g transform="matrix(1,0,0,1,0,0)"><svg width="395.52" viewBox="4.45 -32.75 129.99 33.4" height="101.61821538461538" data-palette-color="#6ddcbd"><path d="M7.25-17.45L21-17.45 21-14.15 7.25-14.15 7.25-17.45ZM15.25-14.15L15.25-14.15 16.85-16.65Q20.25-16.65 22.5-15.53 24.75-14.4 25.88-12.55 27-10.7 27-8.4L27-8.4Q27-3.85 23.73-1.65 20.45 0.55 14.4 0.55L14.4 0.55Q13.05 0.55 11.7 0.48 10.35 0.4 9.05 0.2 7.75 0 6.55-0.3L6.55-0.3Q4.45-0.9 4.45-2.6L4.45-2.6 4.45-28.2Q4.45-29 4.88-29.45 5.3-29.9 6.1-30.1L6.1-30.1Q7.8-30.6 9.73-30.78 11.65-30.95 13.85-30.95L13.85-30.95Q19.5-30.95 22.65-28.93 25.8-26.9 25.8-22.75L25.8-22.75Q25.8-20.65 24.78-18.88 23.75-17.1 21.48-16.03 19.2-14.95 15.4-14.95L15.4-14.95 14.95-17.45Q18.25-17.45 19.95-18.82 21.65-20.2 21.65-22.65L21.65-22.65Q21.65-25.15 19.68-26.38 17.7-27.6 13.85-27.6L13.85-27.6Q12.15-27.6 10.85-27.48 9.55-27.35 8.45-27.15L8.45-27.15 8.45-3.35Q9.65-3.1 11.23-2.95 12.8-2.8 14.4-2.8L14.4-2.8Q18.55-2.8 20.7-4.2 22.85-5.6 22.85-8.5L22.85-8.5Q22.85-11.1 20.93-12.63 19-14.15 15.25-14.15ZM34.1-1.55L34.1-13.2 38.1-12.6 38.1-0.1Q37.85 0 37.35 0.13 36.85 0.25 36.25 0.25L36.25 0.25Q35.2 0.25 34.65-0.18 34.1-0.6 34.1-1.55L34.1-1.55ZM38.1-30.95L38.1-10.7 34.1-11.25 34.1-32.4Q34.35-32.5 34.87-32.63 35.4-32.75 35.95-32.75L35.95-32.75Q37.05-32.75 37.57-32.33 38.1-31.9 38.1-30.95L38.1-30.95ZM46-8.45L46-8.45 46-13 50-13 50-8.65Q50-5.45 51.7-4.05 53.4-2.65 56.4-2.65L56.4-2.65Q58.4-2.65 59.8-3.08 61.2-3.5 62-3.95L62-3.95 62-13 66-13 66-4.1Q66-3.05 65.72-2.43 65.45-1.8 64.4-1.2L64.4-1.2Q63.3-0.55 61.25 0.05 59.2 0.65 56.35 0.65L56.35 0.65Q53.05 0.65 50.72-0.33 48.4-1.3 47.2-3.33 46-5.35 46-8.45ZM66-21.5L66-10.4 62-10.4 62-23Q62.25-23.1 62.77-23.23 63.3-23.35 63.85-23.35L63.85-23.35Q64.95-23.35 65.47-22.93 66-22.5 66-21.5L66-21.5ZM50-21.5L50-10.4 46-10.4 46-23Q46.25-23.1 46.77-23.23 47.3-23.35 47.9-23.35L47.9-23.35Q48.95-23.35 49.47-22.93 50-22.5 50-21.5L50-21.5ZM92.14-16L92.14-16 92.14-10.25 88.14-10.25 88.14-15.7Q88.14-18.15 86.72-19.3 85.29-20.45 82.94-20.45L82.94-20.45Q81.39-20.45 79.94-19.95 78.49-19.45 77.49-18.8L77.49-18.8 77.49-10.25 73.49-10.25 73.49-18.6Q73.49-19.6 73.92-20.3 74.34-21 75.39-21.65L75.39-21.65Q76.74-22.5 78.82-23.13 80.89-23.75 82.99-23.75L82.99-23.75Q85.54-23.75 87.49-22.98 89.44-22.2 90.39-20.85L90.39-20.85Q90.69-20.55 90.89-20.3 91.09-20.05 91.29-19.65L91.29-19.65Q91.64-19.05 91.89-18.1 92.14-17.15 92.14-16ZM106.79-15.9L106.79-15.9 106.79-10.25 102.79-10.25 102.79-15.7Q102.79-18.15 101.39-19.3 99.99-20.45 97.64-20.45L97.64-20.45Q95.89-20.45 94.27-19.73 92.64-19 91.34-17.65L91.34-17.65 89.74-20.55Q91.04-21.85 93.14-22.8 95.24-23.75 97.94-23.75L97.94-23.75Q100.64-23.75 102.62-22.9 104.59-22.05 105.69-20.3 106.79-18.55 106.79-15.9ZM73.49-1.55L73.49-12.9 77.49-12.9 77.49-0.1Q77.24 0 76.74 0.13 76.24 0.25 75.64 0.25L75.64 0.25Q74.59 0.25 74.04-0.18 73.49-0.6 73.49-1.55L73.49-1.55ZM88.14-1.55L88.14-12.9 92.14-12.9 92.14-0.1Q91.89 0 91.37 0.13 90.84 0.25 90.29 0.25L90.29 0.25Q89.19 0.25 88.67-0.18 88.14-0.6 88.14-1.55L88.14-1.55ZM102.79-1.55L102.79-12.9 106.79-12.9 106.79-0.1Q106.54 0 106.02 0.13 105.49 0.25 104.94 0.25L104.94 0.25Q103.84 0.25 103.32-0.18 102.79-0.6 102.79-1.55L102.79-1.55ZM132.54-11.35L115.74-9 115.54-12.15 130.64-14.2Q130.44-16.95 128.74-18.73 127.04-20.5 124.04-20.5L124.04-20.5Q120.94-20.5 118.92-18.28 116.89-16.05 116.89-11.9L116.89-11.9 116.89-10.8Q117.24-6.8 119.52-4.73 121.79-2.65 125.74-2.65L125.74-2.65Q127.84-2.65 129.54-3.35 131.24-4.05 132.24-4.85L132.24-4.85Q132.79-4.5 133.12-4.03 133.44-3.55 133.44-2.95L133.44-2.95Q133.44-2 132.37-1.18 131.29-0.35 129.52 0.15 127.74 0.65 125.54 0.65L125.54 0.65Q121.69 0.65 118.87-0.75 116.04-2.15 114.52-4.93 112.99-7.7 112.99-11.7L112.99-11.7Q112.99-14.55 113.82-16.78 114.64-19 116.12-20.55 117.59-22.1 119.64-22.93 121.69-23.75 124.09-23.75L124.09-23.75Q127.14-23.75 129.47-22.45 131.79-21.15 133.12-18.82 134.44-16.5 134.44-13.5L134.44-13.5Q134.44-12.4 133.94-11.93 133.44-11.45 132.54-11.35L132.54-11.35Z" opacity="1" transform="matrix(1,0,0,1,0,0)" fill="#6ddcbd" class="wordmark-text-0" data-fill-palette-color="primary" id="text-0"></path></svg></g></svg></g></svg></g></svg></g><g><svg viewBox="0 0 244.43135999999996 196.01783519567564" height="196.01783519567564" width="244.43135999999996"><g><svg xmlns="http://www.w3.org/2000/svg" xmlnsXlink="http://www.w3.org/1999/xlink" version="1.1" x="0" y="0" viewBox="5 12.495 90 72.17406623933529" enable-background="new 0 0 100 100" xmlSpace="preserve" height="196.01783519567564" width="244.43135999999996" class="icon-icon-0" data-fill-palette-color="accent" id="icon-0"><path d="M91 24.094V18C91 14.913 88.616 12.495 85.573 12.495 85.219 12.495 84.86 12.528 84.506 12.594L52.407 18.507C51.203 18.728 48.797 18.729 47.593 18.507L15.494 12.594A6 6 0 0 0 14.427 12.495C11.383 12.495 9 14.913 9 18V24.094C6.663 25.058 5 27.396 5 30V79C5 80.535 5.581 81.964 6.635 83.023 7.849 84.244 9.533 84.845 11.334 84.624L47.376 80.333C48.713 80.175 51.287 80.175 52.625 80.333L88.667 84.624C88.905 84.653 89.141 84.666 89.372 84.666 92.527 84.666 95 82.178 95 79V30C95 27.395 93.337 25.058 91 24.094M11 78.622V71.635C11.926 72.567 13.097 73.252 14.407 73.494L29.98 76.362zM47 73.396L15.495 67.593C15.296 67.557 15 67.202 15 67V18.603L46.506 24.407C46.659 24.435 46.832 24.457 47 24.481zM53 24.481C53.168 24.457 53.341 24.435 53.494 24.407L85 18.601V67C85 67.202 84.704 67.557 84.507 67.594L53 73.396zM89 78.622L70.02 76.362 85.595 73.494C86.905 73.252 88.074 72.566 89 71.635zM40.521 32.045L22.52 28.879A2.999 2.999 0 1 0 21.481 34.788L39.482 37.955A3 3 0 0 0 40.521 32.045M40.521 44.045L22.52 40.879A2.999 2.999 0 1 0 21.481 46.788L39.482 49.954A2.995 2.995 0 0 0 42.955 47.519 3 3 0 0 0 40.521 44.045M34.076 54.972L22.535 52.882A3 3 0 1 0 21.465 58.786L33.006 60.876A3 3 0 0 0 36.493 58.458 3 3 0 0 0 34.076 54.972M77.48 27.879L59.48 31.046A3 3 0 0 0 57 34V47A3.003 3.003 0 0 0 60.52 49.955L78.52 46.789A3 3 0 0 0 81 43.834V30.834C81 29.947 80.607 29.106 79.929 28.536A3.01 3.01 0 0 0 77.48 27.879M75 41.315L63 43.426V36.518L75 34.407zM71.467 52.882L59.926 54.972A3 3 0 1 0 60.994 60.876L72.535 58.786A3 3 0 1 0 71.467 52.882" fill="#f231aa" data-fill-palette-color="accent"></path></svg></g></svg></g></svg></g><defs></defs></svg><rect width="395.52" height="116.77088220196667" fill="none" stroke="none" visibility="hidden"></rect></g></svg></g></svg>